<svg width="44" height="44" viewBox="0 0 44 44" fill="none" xmlns="http://www.w3.org/2000/svg">
<path d="M20.0234 23.8125C24.1484 23.8125 27.5 27.1641 27.5 31.2891C27.5 32.1055 26.8125 32.75 25.9961 32.75H9.71094C8.89453 32.75 8.25 32.1055 8.25 31.2891C8.25 27.1641 11.5586 23.8125 15.6836 23.8125H20.0234ZM25.9961 31.375C26.0391 31.375 26.125 31.332 26.125 31.2891C26.125 27.9375 23.375 25.1875 20.0234 25.1875H15.6836C12.332 25.1875 9.625 27.9375 9.625 31.2891C9.625 31.332 9.66797 31.375 9.71094 31.375H25.9961ZM17.875 21.75C14.8242 21.75 12.375 19.3008 12.375 16.25C12.375 13.2422 14.8242 10.75 17.875 10.75C20.8828 10.75 23.375 13.2422 23.375 16.25C23.375 19.3008 20.8828 21.75 17.875 21.75ZM17.875 12.125C15.5977 12.125 13.75 14.0156 13.75 16.25C13.75 18.5273 15.5977 20.375 17.875 20.375C20.1094 20.375 22 18.5273 22 16.25C22 14.0156 20.1094 12.125 17.875 12.125ZM24.3633 21.1055C24.0625 20.9336 23.9336 20.5039 24.1484 20.2031C24.3203 19.8594 24.75 19.7305 25.0938 19.9453C25.6094 20.2461 26.168 20.375 26.8125 20.375C28.7031 20.375 30.25 18.8711 30.25 16.9375C30.25 15.0469 28.7031 13.5 26.8125 13.5C26.3828 13.5 25.9961 13.5859 25.6523 13.7148C25.3086 13.8438 24.8789 13.6719 24.75 13.2852C24.6211 12.9414 24.8359 12.5547 25.1797 12.4258C25.6953 12.2539 26.2539 12.125 26.8125 12.125C29.4336 12.125 31.625 14.3164 31.625 16.9375C31.625 19.6016 29.4336 21.75 26.8125 21.75C25.9531 21.75 25.0938 21.5352 24.3633 21.1055ZM29.3047 24.5C32.8711 24.5 35.75 27.3789 35.75 30.9453C35.75 31.9336 34.8906 32.75 33.9023 32.75H29.5625C29.1758 32.75 28.875 32.4492 28.875 32.0625C28.875 31.7188 29.1758 31.375 29.5625 31.375H33.9023C34.1602 31.375 34.375 31.2031 34.375 30.9453C34.375 28.1523 32.0977 25.875 29.3047 25.875H27.5C27.1133 25.875 26.8125 25.5742 26.8125 25.1875C26.8125 24.8438 27.1133 24.5 27.5 24.5H29.3047Z" fill="#5D829A"/>
</svg>
