<svg width="44" height="44" viewBox="0 0 44 44" fill="none" xmlns="http://www.w3.org/2000/svg">
<path d="M22 11.8438C22 11.4219 22.3281 11 22.7969 11C28.9844 11 34 16.0156 34 22.2031C34 22.6719 33.5781 23 33.1562 23H22.75C22.3281 23 22 22.6719 22 22.25V11.8438ZM23.5 21.5H32.4531C32.125 16.7188 28.2812 12.875 23.5 12.5469V21.5ZM20.5 24.5H30.8594C31.7031 24.5 32.4062 25.25 32.2188 26.0938C31.1406 31.2031 26.6406 35 21.25 35C15.0156 35 10 29.9844 10 23.75C10 18.3594 13.7969 13.8594 18.9062 12.7812C19.75 12.5938 20.5 13.2969 20.5 14.1406V24.5ZM19 14.2812C14.6875 15.3125 11.5 19.1562 11.5 23.75C11.5 29.1406 15.8594 33.5 21.25 33.5C25.8438 33.5 29.6875 30.3125 30.7188 26H20.5C19.6562 26 19 25.3438 19 24.5V14.2812Z" fill="#7F8B6D"/>
</svg>
